<?xml version="1.0" encoding="UTF-8" standalone="no"?>
<!-- This is a Stata 15.1 generated SVG file (http://www.stata.com) -->

<svg version="1.1" width="5.50in" height="4.00in" viewBox="0 0 3960 2880" xmlns="http://www.w3.org/2000/svg" xmlns:xlink="http://www.w3.org/1999/xlink">
	<desc>Stata Graph - Graph</desc>
	<rect x="0" y="0" width="3960" height="2880" style="fill:#EAF2F3;stroke:none"/>
	<rect x="0.00" y="0.00" width="3959.88" height="2880.00" style="fill:#EAF2F3"/>
	<rect x="2.88" y="2.88" width="3954.12" height="2874.24" style="fill:none;stroke:#EAF2F3;stroke-width:5.76"/>
	<rect x="390.80" y="261.37" width="3468.22" height="2227.82" style="fill:#FFFFFF"/>
	<rect x="393.68" y="264.25" width="3462.46" height="2222.06" style="fill:none;stroke:#FFFFFF;stroke-width:5.76"/>
	<line x1="390.80" y1="2374.84" x2="3859.02" y2="2374.84" style="stroke:#EAF2F3;stroke-width:8.64"/>
	<line x1="390.80" y1="1868.93" x2="3859.02" y2="1868.93" style="stroke:#EAF2F3;stroke-width:8.64"/>
	<line x1="390.80" y1="1363.03" x2="3859.02" y2="1363.03" style="stroke:#EAF2F3;stroke-width:8.64"/>
	<line x1="390.80" y1="857.00" x2="3859.02" y2="857.00" style="stroke:#EAF2F3;stroke-width:8.64"/>
	<line x1="390.80" y1="351.09" x2="3859.02" y2="351.09" style="stroke:#EAF2F3;stroke-width:8.64"/>
	<line x1="454.16" y1="1602.98" x2="454.16" y2="324.73" style="stroke:#1A476F;stroke-width:8.64"/>
	<line x1="432.13" y1="324.73" x2="476.19" y2="324.73" stroke-linecap="round" style="stroke:#1A476F;stroke-width:8.64"/>
	<line x1="432.13" y1="1602.98" x2="476.19" y2="1602.98" stroke-linecap="round" style="stroke:#1A476F;stroke-width:8.64"/>
	<line x1="2124.91" y1="2425.82" x2="2124.91" y2="1160.69" style="stroke:#1A476F;stroke-width:8.64"/>
	<line x1="2102.88" y1="1160.69" x2="2146.94" y2="1160.69" stroke-linecap="round" style="stroke:#1A476F;stroke-width:8.64"/>
	<line x1="2102.88" y1="2425.82" x2="2146.94" y2="2425.82" stroke-linecap="round" style="stroke:#1A476F;stroke-width:8.64"/>
	<line x1="3795.66" y1="1354.73" x2="3795.66" y2="1334.69" style="stroke:#1A476F;stroke-width:8.64"/>
	<line x1="3773.63" y1="1334.69" x2="3817.69" y2="1334.69" stroke-linecap="round" style="stroke:#1A476F;stroke-width:8.64"/>
	<line x1="3773.63" y1="1354.73" x2="3817.69" y2="1354.73" stroke-linecap="round" style="stroke:#1A476F;stroke-width:8.64"/>
	<path d=" M454.04 963.92 L2124.91 1793.32 L3795.66 1344.71" stroke-linecap="round" stroke-linejoin="round" style="fill:none;stroke:#1A476F;stroke-width:8.64"/>
	<circle cx="454.04" cy="963.92" r="26.35" style="fill:#1A476F"/>
	<circle cx="454.04" cy="963.92" r="22.03" style="fill:none;stroke:#1A476F;stroke-width:8.64"/>
	<circle cx="2124.91" cy="1793.32" r="26.35" style="fill:#1A476F"/>
	<circle cx="2124.91" cy="1793.32" r="22.03" style="fill:none;stroke:#1A476F;stroke-width:8.64"/>
	<circle cx="3795.66" cy="1344.71" r="26.35" style="fill:#1A476F"/>
	<circle cx="3795.66" cy="1344.71" r="22.03" style="fill:none;stroke:#1A476F;stroke-width:8.64"/>
	<line x1="390.80" y1="2489.19" x2="390.80" y2="261.37" style="stroke:#000000;stroke-width:5.76"/>
	<line x1="390.80" y1="2374.84" x2="350.83" y2="2374.84" style="stroke:#000000;stroke-width:5.76"/>
	<text x="300.72" y="2374.84" style="font-family:'Helvetica';font-size:99.99px;fill:#000000" transform="rotate(-90 300.72,2374.84)" text-anchor="middle">-40</text>
	<line x1="390.80" y1="1868.93" x2="350.83" y2="1868.93" style="stroke:#000000;stroke-width:5.76"/>
	<text x="300.72" y="1868.93" style="font-family:'Helvetica';font-size:99.99px;fill:#000000" transform="rotate(-90 300.72,1868.93)" text-anchor="middle">-20</text>
	<line x1="390.80" y1="1363.03" x2="350.83" y2="1363.03" style="stroke:#000000;stroke-width:5.76"/>
	<text x="300.72" y="1363.03" style="font-family:'Helvetica';font-size:99.99px;fill:#000000" transform="rotate(-90 300.72,1363.03)" text-anchor="middle">0</text>
	<line x1="390.80" y1="857.00" x2="350.83" y2="857.00" style="stroke:#000000;stroke-width:5.76"/>
	<text x="300.72" y="857.00" style="font-family:'Helvetica';font-size:99.99px;fill:#000000" transform="rotate(-90 300.72,857.00)" text-anchor="middle">20</text>
	<line x1="390.80" y1="351.09" x2="350.83" y2="351.09" style="stroke:#000000;stroke-width:5.76"/>
	<text x="300.72" y="351.09" style="font-family:'Helvetica';font-size:99.99px;fill:#000000" transform="rotate(-90 300.72,351.09)" text-anchor="middle">40</text>
	<text x="190.71" y="1375.28" style="font-family:'Helvetica';font-size:99.99px;fill:#000000" transform="rotate(-90 190.71,1375.28)" text-anchor="middle">Effects on Linear Prediction</text>
	<line x1="390.80" y1="2489.19" x2="3859.02" y2="2489.19" style="stroke:#000000;stroke-width:5.76"/>
	<line x1="454.16" y1="2489.19" x2="454.16" y2="2529.16" style="stroke:#000000;stroke-width:5.76"/>
	<text x="454.16" y="2619.14" style="font-family:'Helvetica';font-size:99.99px;fill:#000000" text-anchor="middle">2.occ_type</text>
	<line x1="2124.91" y1="2489.19" x2="2124.91" y2="2529.16" style="stroke:#000000;stroke-width:5.76"/>
	<text x="2124.91" y="2619.14" style="font-family:'Helvetica';font-size:99.99px;fill:#000000" text-anchor="middle">3.occ_type</text>
	<line x1="3795.66" y1="2489.19" x2="3795.66" y2="2529.16" style="stroke:#000000;stroke-width:5.76"/>
	<text x="3795.66" y="2619.14" style="font-family:'Helvetica';font-size:99.99px;fill:#000000" text-anchor="middle">educ</text>
	<text x="2124.91" y="2729.16" style="font-family:'Helvetica';font-size:99.99px;fill:#000000" text-anchor="middle">Effects with Respect to</text>
	<text x="1980.00" y="206.19" style="font-family:'Helvetica';font-size:125.98px;fill:#1E2D53" text-anchor="middle">Average Marginal Effects with 95% CIs</text>
</svg>
