<?xml version="1.0" encoding="UTF-8" standalone="no"?>
<!-- This is a Stata 15.1 generated SVG file (http://www.stata.com) -->

<svg version="1.1" width="5.50in" height="4.00in" viewBox="0 0 3960 2880" xmlns="http://www.w3.org/2000/svg" xmlns:xlink="http://www.w3.org/1999/xlink">
	<desc>Stata Graph - Graph</desc>
	<rect x="0" y="0" width="3960" height="2880" style="fill:#EAF2F3;stroke:none"/>
	<rect x="0.00" y="0.00" width="3959.88" height="2880.00" style="fill:#EAF2F3"/>
	<rect x="2.88" y="2.88" width="3954.12" height="2874.24" style="fill:none;stroke:#EAF2F3;stroke-width:5.76"/>
	<rect x="390.80" y="261.37" width="3468.22" height="2227.82" style="fill:#FFFFFF"/>
	<rect x="393.68" y="264.25" width="3462.46" height="2222.06" style="fill:none;stroke:#FFFFFF;stroke-width:5.76"/>
	<line x1="390.80" y1="2425.82" x2="3859.02" y2="2425.82" style="stroke:#EAF2F3;stroke-width:8.64"/>
	<line x1="390.80" y1="1725.50" x2="3859.02" y2="1725.50" style="stroke:#EAF2F3;stroke-width:8.64"/>
	<line x1="390.80" y1="1025.05" x2="3859.02" y2="1025.05" style="stroke:#EAF2F3;stroke-width:8.64"/>
	<line x1="390.80" y1="324.73" x2="3859.02" y2="324.73" style="stroke:#EAF2F3;stroke-width:8.64"/>
	<line x1="454.16" y1="2112.11" x2="454.16" y2="618.27" style="stroke:#1A476F;stroke-width:8.64"/>
	<line x1="432.13" y1="618.27" x2="476.19" y2="618.27" stroke-linecap="round" style="stroke:#1A476F;stroke-width:8.64"/>
	<line x1="432.13" y1="2112.11" x2="476.19" y2="2112.11" stroke-linecap="round" style="stroke:#1A476F;stroke-width:8.64"/>
	<line x1="2124.91" y1="1287.04" x2="2124.91" y2="338.34" style="stroke:#1A476F;stroke-width:8.64"/>
	<line x1="2102.88" y1="338.34" x2="2146.94" y2="338.34" stroke-linecap="round" style="stroke:#1A476F;stroke-width:8.64"/>
	<line x1="2102.88" y1="1287.04" x2="2146.94" y2="1287.04" stroke-linecap="round" style="stroke:#1A476F;stroke-width:8.64"/>
	<line x1="3795.66" y1="2418.03" x2="3795.66" y2="1503.73" style="stroke:#1A476F;stroke-width:8.64"/>
	<line x1="3773.63" y1="1503.73" x2="3817.69" y2="1503.73" stroke-linecap="round" style="stroke:#1A476F;stroke-width:8.64"/>
	<line x1="3773.63" y1="2418.03" x2="3817.69" y2="2418.03" stroke-linecap="round" style="stroke:#1A476F;stroke-width:8.64"/>
	<path d=" M454.04 1365.25 L2124.91 812.69 L3795.66 1960.88" stroke-linecap="round" stroke-linejoin="round" style="fill:none;stroke:#1A476F;stroke-width:8.64"/>
	<circle cx="454.04" cy="1365.25" r="26.35" style="fill:#1A476F"/>
	<circle cx="454.04" cy="1365.25" r="22.03" style="fill:none;stroke:#1A476F;stroke-width:8.64"/>
	<circle cx="2124.91" cy="812.69" r="26.35" style="fill:#1A476F"/>
	<circle cx="2124.91" cy="812.69" r="22.03" style="fill:none;stroke:#1A476F;stroke-width:8.64"/>
	<circle cx="3795.66" cy="1960.88" r="26.35" style="fill:#1A476F"/>
	<circle cx="3795.66" cy="1960.88" r="22.03" style="fill:none;stroke:#1A476F;stroke-width:8.64"/>
	<line x1="390.80" y1="2489.19" x2="390.80" y2="261.37" style="stroke:#000000;stroke-width:5.76"/>
	<line x1="390.80" y1="2425.82" x2="350.83" y2="2425.82" style="stroke:#000000;stroke-width:5.76"/>
	<text x="300.72" y="2425.82" style="font-family:'Helvetica';font-size:99.99px;fill:#000000" transform="rotate(-90 300.72,2425.82)" text-anchor="middle">20</text>
	<line x1="390.80" y1="1725.50" x2="350.83" y2="1725.50" style="stroke:#000000;stroke-width:5.76"/>
	<text x="300.72" y="1725.50" style="font-family:'Helvetica';font-size:99.99px;fill:#000000" transform="rotate(-90 300.72,1725.50)" text-anchor="middle">40</text>
	<line x1="390.80" y1="1025.05" x2="350.83" y2="1025.05" style="stroke:#000000;stroke-width:5.76"/>
	<text x="300.72" y="1025.05" style="font-family:'Helvetica';font-size:99.99px;fill:#000000" transform="rotate(-90 300.72,1025.05)" text-anchor="middle">60</text>
	<line x1="390.80" y1="324.73" x2="350.83" y2="324.73" style="stroke:#000000;stroke-width:5.76"/>
	<text x="300.72" y="324.73" style="font-family:'Helvetica';font-size:99.99px;fill:#000000" transform="rotate(-90 300.72,324.73)" text-anchor="middle">80</text>
	<text x="190.71" y="1375.28" style="font-family:'Helvetica';font-size:99.99px;fill:#000000" transform="rotate(-90 190.71,1375.28)" text-anchor="middle">Linear Prediction</text>
	<line x1="390.80" y1="2489.19" x2="3859.02" y2="2489.19" style="stroke:#000000;stroke-width:5.76"/>
	<line x1="454.16" y1="2489.19" x2="454.16" y2="2529.16" style="stroke:#000000;stroke-width:5.76"/>
	<text x="454.16" y="2619.14" style="font-family:'Helvetica';font-size:99.99px;fill:#000000" text-anchor="middle">bc</text>
	<line x1="2124.91" y1="2489.19" x2="2124.91" y2="2529.16" style="stroke:#000000;stroke-width:5.76"/>
	<text x="2124.91" y="2619.14" style="font-family:'Helvetica';font-size:99.99px;fill:#000000" text-anchor="middle">prof</text>
	<line x1="3795.66" y1="2489.19" x2="3795.66" y2="2529.16" style="stroke:#000000;stroke-width:5.76"/>
	<text x="3795.66" y="2619.14" style="font-family:'Helvetica';font-size:99.99px;fill:#000000" text-anchor="middle">wc</text>
	<text x="2124.91" y="2729.16" style="font-family:'Helvetica';font-size:99.99px;fill:#000000" text-anchor="middle">Occupation type, Professional/Manag, White Collar, Blue Collar</text>
	<text x="1980.00" y="206.19" style="font-family:'Helvetica';font-size:125.98px;fill:#1E2D53" text-anchor="middle">Predictive Margins of occ_type with 95% CIs</text>
</svg>
